# Blender v2.78 (sub 0) OBJ File: ''
# www.blender.org
mtllib untitled.mtl
o Cube
v 1.000000 -0.008387 -1.000000
v 1.000000 -0.008387 1.000000
v -1.000000 -0.008387 1.000000
v -1.000000 -0.008387 -1.000000
v 1.000000 1.991613 -0.999999
v 0.999999 1.991613 1.000001
v -1.000000 1.991613 1.000000
v -1.000000 1.991613 -1.000000
v 1.000000 3.745678 -0.261695
v 0.999999 3.745678 1.738305
v -1.000000 3.745678 -0.261695
v -1.000000 3.745678 1.738304
v 1.000000 5.356817 -0.261695
v 0.999999 5.356817 1.738305
v -1.000000 5.356817 -0.261695
v -1.000000 5.356817 1.738304
v 0.865013 6.789547 -1.513143
v 0.865012 6.789547 0.486857
v -1.134988 6.789547 -1.513143
v -1.134988 6.789547 0.486856
vn 0.0000 -1.0000 0.0000
vn -0.0000 -0.3879 0.9217
vn 1.0000 0.0000 0.0000
vn -0.0000 -0.0000 1.0000
vn -1.0000 -0.0000 -0.0000
vn 0.0000 0.0000 -1.0000
vn 0.0000 0.3879 -0.9217
vn -0.9956 -0.0938 -0.0000
vn 0.0000 1.0000 0.0000
vn 0.0000 -0.6579 -0.7531
vn -0.0000 0.6579 0.7531
vn 0.9956 0.0938 0.0000
usemtl Material
s off
f 1//1 2//1 3//1 4//1
f 7//2 6//2 10//2 12//2
f 1//3 5//3 6//3 2//3
f 2//4 6//4 7//4 3//4
f 3//5 7//5 8//5 4//5
f 5//6 1//6 4//6 8//6
f 12//4 10//4 14//4 16//4
f 6//3 5//3 9//3 10//3
f 8//5 7//5 12//5 11//5
f 5//7 8//7 11//7 9//7
f 15//8 16//8 20//8 19//8
f 10//3 9//3 13//3 14//3
f 11//5 12//5 16//5 15//5
f 9//6 11//6 15//6 13//6
f 17//9 19//9 20//9 18//9
f 13//10 15//10 19//10 17//10
f 16//11 14//11 18//11 20//11
f 14//12 13//12 17//12 18//12
